<?xml version="1.0" encoding="UTF-8" standalone="no"?>
<!--
SPDX-FileCopyrightText: 2026 Ivan Romanov <drizt72@zoho.eu>
SPDX-License-Identifier: GPL-3.0-or-later
-->

<!-- Created with Inkscape (http://www.inkscape.org/) -->

<svg
   width="128"
   height="128"
   viewBox="0 0 128 128"
   version="1.1"
   id="svg1"
   xml:space="preserve"
   inkscape:version="1.4.3 (0d15f75042, 2025-12-25)"
   sodipodi:docname="app.svg"
   xmlns:inkscape="http://www.inkscape.org/namespaces/inkscape"
   xmlns:sodipodi="http://sodipodi.sourceforge.net/DTD/sodipodi-0.dtd"
   xmlns="http://www.w3.org/2000/svg"
   xmlns:svg="http://www.w3.org/2000/svg"><sodipodi:namedview
     id="namedview1"
     pagecolor="#ffffff"
     bordercolor="#000000"
     borderopacity="0.25"
     inkscape:showpageshadow="2"
     inkscape:pageopacity="0.0"
     inkscape:pagecheckerboard="0"
     inkscape:deskcolor="#d1d1d1"
     inkscape:document-units="px"
     inkscape:zoom="4"
     inkscape:cx="76.25"
     inkscape:cy="68.875"
     inkscape:window-width="1920"
     inkscape:window-height="1012"
     inkscape:window-x="0"
     inkscape:window-y="0"
     inkscape:window-maximized="1"
     inkscape:current-layer="layer1"
     showgrid="true"><inkscape:grid
       id="grid1"
       units="px"
       originx="0"
       originy="0"
       spacingx="4"
       spacingy="4"
       empcolor="#ff0000"
       empopacity="0.30196078"
       color="#ff0000"
       opacity="0.14901961"
       empspacing="4"
       enabled="true"
       visible="true" /></sodipodi:namedview><defs
     id="defs1"><inkscape:path-effect
       effect="fillet_chamfer"
       id="path-effect4"
       nodesatellites_param="F,0,0,1,0,0,0,1 @ F,0,0,1,0,0,0,1 @ F,0,0,1,0,0,0,1 @ F,0,0,1,0,0,0,1 @ F,0,0,1,0,0,0,1 @ F,0,0,1,0,0,0,1 @ F,0,0,1,0,0,0,1 @ F,0,0,1,0,0,0,1 @ F,0,0,1,0,0,0,1 @ F,0,0,1,0,0,0,1 @ F,0,0,1,0,0,0,1 @ F,0,0,1,0,0,0,1 @ F,0,0,1,0,0,0,1 @ F,0,0,1,0,0,0,1 @ F,0,0,1,0,0,0,1 @ F,0,0,1,0,0,0,1 @ F,0,0,1,0,0,0,1 @ F,0,0,1,0,0,0,1 @ F,0,0,1,0,0,0,1 @ F,0,0,1,0,0,0,1 @ F,0,0,1,0,0,0,1 @ F,0,0,1,0,0,0,1 @ F,0,0,1,0,0,0,1 @ F,0,0,1,0,0,0,1 @ F,0,0,1,0,0,0,1"
       is_visible="true"
       lpeversion="1"
       radius="0"
       unit="px"
       method="auto"
       mode="F"
       chamfer_steps="1"
       flexible="false"
       use_knot_distance="true"
       apply_no_radius="true"
       apply_with_radius="true"
       only_selected="false"
       hide_knots="false" /><inkscape:path-effect
       effect="fillet_chamfer"
       id="path-effect3"
       is_visible="true"
       lpeversion="1"
       nodesatellites_param="F,0,1,1,0,0,0,1 @ F,0,1,1,0,0,0,1 @ F,0,1,1,0,0,0,1 @ F,0,1,1,0,0,0,1 @ F,0,1,1,0,0,0,1 @ F,0,1,1,0,0,0,1 @ C,0,1,1,0,0,0,1 @ IC,0,1,1,0,0,0,1"
       radius="0"
       unit="px"
       method="auto"
       mode="F"
       chamfer_steps="1"
       flexible="false"
       use_knot_distance="true"
       apply_no_radius="true"
       apply_with_radius="true"
       only_selected="false"
       hide_knots="false" /></defs><g
     inkscape:label="Layer 1"
     inkscape:groupmode="layer"
     id="layer1"><rect
       style="display:inline;vector-effect:non-scaling-stroke;fill:#00b62d;fill-opacity:1;stroke:#00b62d;stroke-width:1;stroke-dasharray:none;stroke-opacity:1;-inkscape-stroke:hairline"
       id="rect1"
       width="104"
       height="104"
       x="12"
       y="12"
       ry="18"
       rx="18"
       inkscape:label="background" /><path
       style="opacity:1;baseline-shift:baseline;display:inline;overflow:visible;vector-effect:non-scaling-stroke;fill:#ffffff;-inkscape-stroke:hairline;enable-background:accumulate;stop-color:#000000;stop-opacity:1;stroke:none"
       d="m 82,80 c -1,0 -2,1 -2,2 v 24 c 0,1 1,2 2,2 h 16 c 1,0 2,-1 2,-2 0,-1 -1,-2 -2,-2 H 84 v -8 h 14 c 1,0 2,-1 2,-2 0,-1 -1,-2 -2,-2 H 84 v -8 h 14 c 1,0 2,-1 2,-2 0,-1 -1,-2 -2,-2 z"
       id="path3"
       inkscape:label="E" /><path
       style="opacity:1;baseline-shift:baseline;display:inline;overflow:visible;vector-effect:non-scaling-stroke;fill:#ffffff;-inkscape-stroke:hairline;enable-background:accumulate;stop-color:#000000;stop-opacity:1;stroke:none"
       d="m 32,20 c -1,0 -2,1 -2,2 0,1 1,2 2,2 h 8 v 22 c 0,1 1,2 2,2 1,0 2,-1 2,-2 V 36 h 10 c 1,0 2,-1 2,-2 0,-1 -1,-2 -2,-2 H 44 v -8 h 14 c 1,0 2,-1 2,-2 0,-1 -1,-2 -2,-2 z"
       id="path1"
       inkscape:label="TF" /><path
       id="path6"
       style="vector-effect:non-scaling-stroke;fill:#ffffff;stroke:none;stroke-width:1.10067;-inkscape-stroke:hairline"
       d="m 95.04,20.51 c -1.3,0.19 -3.6,1.58 -3.6,1.58 L 24.8,88.22 20,108 l 17.79,-4.19 69.2,-68.67 c 0,0 1.09,-2.37 1.09,-3.63 0.01,-2.08 -0.6,-4.26 -1.75,-5.98 -1.25,-1.87 -3.19,-3.36 -5.27,-4.24 -1.86,-0.79 -4.02,-1.06 -6.02,-0.77 z m -0.13,3.21 c 0.66,2.24 1.82,3.65 3.5,5.19 L 33.26,93.58 c -0.24,0.24 -1.39,-0.06 -1.97,-0.39 -0.48,-0.27 -0.9,-0.71 -1.13,-1.22 -0.34,-0.75 -0.34,-1.64 -0.25,-2.46 0.08,-0.65 0.55,-1.79 0.64,-1.86 v 0 0 0 0 l 64.3,-63.81 z m 5.18,6.57 c 1.21,1.38 4.77,2.46 4.75,2.28 L 38.08,98.86 c 0,0 -0.81,0.08 -1.18,-0.04 -0.57,-0.19 -1.07,-0.6 -1.49,-1.04 -0.28,-0.29 -0.51,-0.64 -0.64,-1.02 -0.12,-0.35 -0.18,-0.74 -0.11,-1.11 0.06,-0.31 0.37,-0.82 0.42,-0.84 z M 28.55,89.77 c -0.11,1.11 -0.42,2.76 0.84,4.2 0.71,0.81 2.5,1.43 3.88,1.12 0.02,1.78 0.16,2.65 0.92,3.54 0.52,0.61 1.99,1.57 2.71,1.52 l -8.84,2.17 -2.6,-2.57 z"
       inkscape:label="pencil"
       sodipodi:nodetypes="ccccccaaaacccsaaaccccccccccaaaaccscsccccs" /></g></svg>
